HIERARCHY
ROOT Hips
{
  OFFSET -125.086 92.215 135.881
  CHANNELS 6 Xposition Yposition Zposition Zrotation Xrotation Yrotation
  JOINT LeftUpLeg
  {
    OFFSET 8.64259 1.95398 -2.38835
    CHANNELS 3 Zrotation Xrotation Yrotation
    JOINT LeftLeg
    {
      OFFSET 43.7702 0 0
      CHANNELS 3 Zrotation Xrotation Yrotation
      JOINT LeftFoot
      {
        OFFSET 40.6238 0 0
        CHANNELS 3 Zrotation Xrotation Yrotation
        JOINT LeftToeBase
        {
          OFFSET 12.7242 0 0
          CHANNELS 3 Zrotation Xrotation Yrotation
          End Site
          {
            OFFSET 0 0 0
          }
        }
      }
    }
  }
  JOINT RightUpLeg
  {
    OFFSET -8.2249 1.95398 -2.59336
    CHANNELS 3 Zrotation Xrotation Yrotation
    JOINT RightLeg
    {
      OFFSET 43.5653 0 0
      CHANNELS 3 Zrotation Xrotation Yrotation
      JOINT RightFoot
      {
        OFFSET 40.6238 0 0
        CHANNELS 3 Zrotation Xrotation Yrotation
        JOINT RightToeBase
        {
          OFFSET 12.7242 0 0
          CHANNELS 3 Zrotation Xrotation Yrotation
          End Site
          {
            OFFSET 0 0 0
          }
        }
      }
    }
  }
  JOINT Spine
  {
    OFFSET 0.165834 0.87714 6.61349
    CHANNELS 3 Zrotation Xrotation Yrotation
    JOINT Spine1
    {
      OFFSET 7.38963 1.71661e-005 0
      CHANNELS 3 Zrotation Xrotation Yrotation
      JOINT Spine2
      {
        OFFSET 11.9445 1.14441e-005 0
        CHANNELS 3 Zrotation Xrotation Yrotation
        JOINT Spine3
        {
          OFFSET 14.7254 4.19617e-005 0
          CHANNELS 3 Zrotation Xrotation Yrotation
          JOINT Spine4
          {
            OFFSET 10.9679 0 0
            CHANNELS 3 Zrotation Xrotation Yrotation
            JOINT RightShoulder
            {
              OFFSET 2.46616 -1.6653 3.69651
              CHANNELS 3 Zrotation Xrotation Yrotation
              JOINT RightArm
              {
                OFFSET 13.0012 0 0
                CHANNELS 3 Zrotation Xrotation Yrotation
                JOINT RightForeArm
                {
                  OFFSET 28.7848 1.52588e-005 0
                  CHANNELS 3 Zrotation Xrotation Yrotation
                  JOINT RightHand
                  {
                    OFFSET 26.5688 1.52588e-005 0
                    CHANNELS 3 Zrotation Xrotation Yrotation
                    End Site
                    {
                      OFFSET 0 0 0
                    }
                  }
                }
              }
            }
            JOINT LeftShoulder
            {
              OFFSET 2.38034 -1.29275 -3.7523
              CHANNELS 3 Zrotation Xrotation Yrotation
              JOINT LeftArm
              {
                OFFSET 16.3182 6.10352e-005 0
                CHANNELS 3 Zrotation Xrotation Yrotation
                JOINT LeftForeArm
                {
                  OFFSET 27.0901 0 0
                  CHANNELS 3 Zrotation Xrotation Yrotation
                  JOINT LeftHand
                  {
                    OFFSET 24.5451 1.52588e-005 0
                    CHANNELS 3 Zrotation Xrotation Yrotation
                    End Site
                    {
                      OFFSET 0 0 0
                    }
                  }
                }
              }
            }
            JOINT Neck
            {
              OFFSET 5.0226 -0.0266342 0
              CHANNELS 3 Zrotation Xrotation Yrotation
              JOINT Head
              {
                OFFSET 6.69363 2.86102e-005 0
                CHANNELS 3 Zrotation Xrotation Yrotation
                End Site
                {
                  OFFSET 0 0 0
                }
              }
            }
          }
        }
      }
    }
  }
}
MOTION
Frames:	15
Frame Time:	0.0416667
-264.494 93.5897 252.181 94.3484 25.5049 90.9906 -170.319 -6.12617 91.3996 -4.33515 7.99234 -1.14267 60.9978 4.79579 13.4984 35.0777 -0.576133 0.617548 -179.567 4.73011 93.3532 -21.0411 -8.71643 -3.97464 62.7089 -0.0872742 17.2204 35.9451 -0.929307 -5.45012 1.63808 7.12984 -90.4762 12.6348 3.02656 -1.30616 0.966627 2.96615 -1.43818 -21.5962 3.27908 -0.335293 -1.58352 3.27906 -0.3353 116.434 -60.4711 -62.6171 22.8213 1.7897 -17.1682 1.32101 -30.8788 -9.84256 -7.07166 -0.371413 1.00536 -71.1497 -52.3571 106.77 -41.8878 -9.32131 -25.0229 4.58404 66.5323 0.0229278 -1.80995 -0.110141 -8.3671 -2.60083 1.24825 -4.62802 -12.6338 1.05035 9.38729 
-264.33 93.5683 252.19 94.1082 25.7683 91.0846 -170.521 -5.50335 91.3951 -5.3298 6.95578 -0.902805 61.5658 4.67289 12.092 34.7259 -0.51174 0.0464536 -179.51 4.91679 93.3679 -21.0976 -6.86129 -3.9372 63.0455 -0.102915 18.4785 35.0761 -0.810497 -4.04637 1.66848 7.10876 -90.4494 12.6777 3.09952 -1.26314 1.00965 3.04092 -1.39843 -21.5547 3.33571 -0.272269 -1.54207 3.33568 -0.272273 117.626 -60.7937 -61.0787 22.4962 1.68616 -17.1378 1.49753 -30.4748 -9.71214 -7.41057 -0.38835 0.986688 -71.9549 -51.5093 105.666 -42.9334 -9.37212 -24.8341 5.17899 67.0443 0.0234106 0.918345 -0.191899 -8.37533 -0.473137 -0.283403 -5.46405 -16.9739 -0.599434 9.12745 
-264.12 93.537 252.412 93.4798 26.1627 91.6461 -170.061 -4.27412 91.9498 -6.45812 7.61475 -1.05518 62.0284 4.85365 11.9955 34.8385 -0.508169 -0.156813 -179.334 5.34536 93.8553 -20.9174 -6.3659 -3.76313 62.9705 -0.239533 18.0103 34.8544 -0.781471 -3.76314 1.66538 7.06391 -90.3819 12.7658 3.12489 -1.13455 1.098 3.07192 -1.27108 -21.4671 3.32124 -0.141959 -1.45448 3.32125 -0.141961 119.818 -61.7294 -58.3742 21.5163 1.32923 -17.7326 1.93117 -30.856 -9.62055 -7.58945 -0.420105 1.34974 -72.9845 -49.7347 104.281 -44.1064 -9.05515 -24.7488 5.65606 71.7832 0.0292073 -15.2375 0.796413 -12.121 1.40388 -0.998539 -7.71783 -18.6894 -1.16534 10.2102 
-264.032 93.5268 252.784 92.6983 26.3345 92.91 -169.261 -2.43763 93.1425 -8.14044 8.69184 -1.12296 62.5903 5.16096 12.0989 35.3022 -0.556197 -0.02977 -178.673 5.81644 95.0807 -20.1147 -5.61015 -3.6703 62.3657 -0.278623 17.3641 34.868 -0.813527 -3.09696 1.63973 6.99832 -90.4895 12.8984 3.0212 -1.34349 1.23013 2.95913 -1.47524 -21.3324 3.28515 -0.372519 -1.3198 3.28516 -0.372525 118.881 -61.3777 -59.5327 21.9623 1.29109 -17.4515 1.49037 -30.4003 -10.1927 -7.26354 -0.372245 0.83355 -72.8236 -50.1624 104.488 -43.5069 -8.62335 -24.7902 5.18986 69.5341 0.0261135 -7.4868 0.257001 -10.436 0.727239 -0.0686929 -7.40448 -18.1181 -0.28696 10.2659 
-264.033 93.4915 253.231 91.5404 26.4883 94.2205 -168.745 0.168612 94.1147 -10.6259 8.72554 -1.15416 63.5465 5.47842 11.2495 35.7191 -0.578312 -0.275391 -177.97 6.92857 96.2124 -19.7237 -4.37138 -3.63055 62.2102 -0.241074 17.8681 34.443 -0.678652 -4.27629 1.58861 6.89973 -90.5879 13.0963 2.87062 -1.52999 1.4275 2.80052 -1.6549 -21.1315 3.19762 -0.595803 -1.11884 3.19762 -0.595806 117.803 -60.9794 -60.8826 22.3103 1.45285 -17.3479 1.32605 -30.8048 -10.366 -7.31359 -0.415431 1.53563 -72.4433 -50.8092 105.003 -43.3813 -9.40684 -25.3142 5.68972 70.664 0.0275759 -14.7388 0.56495 -10.4145 0.27939 0.0572759 -6.41002 -17.3391 -0.18732 9.65086 
-263.787 93.3062 253.576 90.4953 27.227 95.9843 -168.148 2.93645 95.5176 -13.5916 10.19 -0.976503 65.1097 6.19321 10.9055 35.6534 -0.643255 1.00882 -177.117 8.22137 97.9576 -20.2528 -3.72646 -3.46244 61.8759 -0.694262 15.6231 40.0279 -1.75889 -4.68354 1.45701 6.83823 -90.785 13.2184 2.51316 -1.88495 1.54831 2.42776 -1.99375 -21.0021 2.96338 -1.04214 -0.989462 2.96337 -1.04215 116.538 -60.3791 -62.4557 22.9199 1.577 -17.2446 1.13654 -30.609 -10.5113 -7.04402 -0.416722 1.84363 -71.8744 -51.6516 105.772 -42.6844 -9.12191 -25.5718 6.37968 69.0705 0.0255602 11.8347 -0.660704 -9.26703 0.738461 0.422575 -5.08479 -16.8706 0.0737703 9.42956 
-263.23 93.2443 253.802 89.0779 28.477 97.3857 -168.123 4.94271 96.2352 -14.9849 11.9915 -0.613461 65.2087 6.77198 11.6894 37.9858 -0.840375 1.46766 -177.014 9.28829 98.9566 -20.3399 -3.78648 -2.89148 61.7788 -1.28816 13.0241 45.755 -2.92642 -5.20638 1.27564 6.75159 -90.8809 13.3887 2.10501 -2.03133 1.71776 2.01358 -2.12198 -20.8249 2.61811 -1.30468 -0.812266 2.61811 -1.30468 116.996 -60.541 -61.8704 22.5952 1.50591 -17.1251 1.13713 -31.0887 -10.7483 -7.74708 -0.514352 2.65757 -72.1562 -51.6859 105.35 -42.2305 -9.3585 -25.2207 5.89672 69.774 0.02641 18.0383 -0.766747 -8.05384 0.692548 0.262425 -5.3764 -15.6646 -0.0369435 10.2829 
-262.275 93.0654 253.788 87.5998 30.075 98.1395 -168.99 6.57953 95.8226 -16.6819 12.9534 0.257373 65.1092 8.03439 13.0827 42.0363 -1.13938 2.68831 -177.31 10.0261 99.0965 -20.662 -2.87048 -2.5424 62.3083 -1.4162 12.733 45.5582 -2.90669 -5.71959 1.01577 6.65883 -90.9118 13.5678 1.57253 -2.03003 1.89609 1.48168 -2.09726 -20.6392 2.10986 -1.46365 -0.626529 2.10986 -1.46365 115.807 -60.6969 -63.5173 23.0482 2.22637 -15.7721 0.447793 -32.1806 -11.072 -7.24411 -0.502372 3.10147 -71.8429 -51.7225 105.812 -41.2934 -9.09628 -24.4972 5.00068 64.1808 0.162995 12.8721 -0.64523 -8.29655 -0.864278 0.635966 -5.20512 -14.2358 0.332093 10.6988 
-261.288 92.17 253.333 87.5931 32.5342 97.6879 -172.483 10.9558 94.2778 -27.2605 11.9584 2.36108 64.1166 9.76169 14.5541 48.8229 -1.26156 7.39559 -179.169 11.3816 98.2639 -25.9005 -1.48752 -1.56173 65.3302 -1.20348 13.4665 44.1841 -2.58373 -4.73692 0.873305 6.7846 -90.9868 13.313 1.25642 -2.13378 1.64085 1.16131 -2.18698 -20.8899 1.83952 -1.65768 -0.877213 1.83953 -1.65768 116.289 -60.1947 -62.753 22.6972 2.18701 -15.5395 0.886437 -31.9481 -10.6683 -7.80682 -0.561969 3.40452 -71.9817 -51.7852 105.599 -40.7475 -7.64785 -23.7308 5.18446 64.6124 -2.08723 7.48408 -0.521258 -9.36205 -0.439363 0.252757 -3.91733 -14.7535 -0.189002 10.0176 
-259.816 90.9146 252.632 89.4594 35.8598 96.144 -175.881 21.9143 93.7509 -50.5102 9.28269 3.6931 59.6441 6.57982 8.41811 56.4014 -1.04303 10.5447 179.356 10.4874 97.7266 -31.1178 -0.306429 -0.777669 70.5492 -1.80947 13.1345 39.4156 -1.64145 -5.57058 0.824587 7.18744 -91.0685 12.5054 1.12967 -2.26437 0.832887 1.02897 -2.31187 -21.6951 1.75787 -1.82037 -1.68241 1.75789 -1.82037 115.93 -60.1275 -63.2295 22.0381 2.40375 -15.8679 1.84402 -31.9653 -9.08993 -9.36777 -0.640518 2.91459 -71.6649 -51.7409 106.074 -40.8706 -5.98864 -24.3057 8.56628 62.6058 -8.0661 -3.05408 -0.0587468 -8.43474 0.000866508 -0.100104 -2.69197 -13.5362 -0.446397 8.30911 
-257.443 90.581 250.909 90.4606 38.7063 92.5984 -176.893 28.557 90.2028 -56.4353 7.00655 2.62643 57.3091 5.75841 9.68849 56.9036 -1.42667 7.37924 177.519 7.78779 94.7771 -32.481 0.464056 -0.424325 73.5275 -2.14528 12.2915 40.3278 -1.80573 -3.38737 0.739435 7.3652 -90.798 12.1522 1.09215 -1.71344 0.480557 1.01572 -1.75985 -22.0527 1.5566 -1.30606 -2.04004 1.55661 -1.30606 115.828 -60.472 -63.4432 21.6048 2.46891 -15.2718 2.54077 -31.1012 -8.36928 -10.0187 -0.785672 4.02073 -71.4164 -51.8833 106.427 -39.5029 -5.40172 -22.4568 11.1145 62.6074 -13.005 -3.43554 -0.0449918 -8.32451 -0.726719 -0.166591 -2.13831 -13.505 -0.335275 5.64266 
-254.812 90.8698 248.491 93.0674 41.2968 87.1033 -179.043 26.1531 85.8064 -38.8454 5.85388 1.39211 57.3032 5.45888 8.35991 52.8864 -1.10916 9.92908 175.186 3.19664 90.3073 -31.9829 0.0553626 -0.274739 73.9523 -2.72527 11.0948 43.389 -2.32767 -1.6025 0.602768 7.67662 -90.3792 11.5247 1.02188 -0.858259 -0.146105 0.983118 -0.90241 -22.6836 1.23257 -0.511447 -2.6709 1.23256 -0.511445 117.728 -61.2109 -61.0386 20.9344 1.39158 -16.1029 2.60637 -31.4216 -9.52166 -9.03175 -0.752367 4.70448 -72.2917 -51.188 105.195 -40.8007 -7.59247 -21.2367 7.19576 67.9917 -5.55267 2.40112 -0.314667 -9.5741 2.46372 -1.74789 -3.78982 -16.359 -1.81022 6.24049 
-251.725 90.9018 245.824 93.1393 41.7176 85.5686 178.94 19.8864 85.4911 -8.5791 5.53178 0.769181 49.0532 0.582495 3.70684 41.7933 -1.1229 9.63702 174.703 -0.0638673 88.4136 -30.7214 4.92178 -1.1877 74.7297 -0.536003 20.8826 42.0124 -2.13491 -3.79435 0.493847 7.81981 -90.263 11.2365 0.860518 -0.60859 -0.434293 0.832914 -0.645884 -22.9713 1.00364 -0.321817 -2.95868 1.00364 -0.321821 115.516 -60.3089 -63.8311 21.4054 -0.509791 -17.501 1.9346 -30.5896 -12.2139 -10.1082 -0.836979 4.6401 -71.5661 -52.2096 106.172 -41.8753 -10.9588 -21.1534 5.00564 67.0597 0.0195689 -4.38528 -0.044532 -6.98784 5.78892 -1.41328 -1.29862 -17.0243 -1.68767 4.61532 
-247.652 90.4834 242.132 91.8309 40.2676 87.3838 179.094 23.213 86.4615 -7.41031 9.10236 1.87128 53.5854 -0.343486 3.57739 41.4435 -1.12234 10.3501 174.305 -2.55628 88.3678 -29.8801 3.02181 -1.13915 71.5148 -0.00523618 22.3353 45.8625 -2.77519 -1.90298 0.618961 7.78613 -90.2585 11.305 1.11133 -0.625594 -0.365627 1.08272 -0.673917 -22.9043 1.24797 -0.26263 -2.89165 1.24798 -0.262638 116.719 -61.0908 -62.3694 19.7604 -2.36119 -20.0689 1.77129 -29.6398 -14.7431 -9.8257 -0.815189 4.67249 -72.0962 -51.6013 105.447 -42.0585 -13.3122 -18.5075 6.70949 68.223 0.0259242 -6.9795 0.00960157 -6.86828 9.12665 -1.57998 -3.28454 -18.801 -1.6194 5.91535 
-242.61 90.2336 237.143 92.2241 38.2892 86.5551 179.425 21.342 85.7991 -10.2875 10.8223 1.5981 49.417 -2.03573 4.94095 42.3632 -1.12057 9.41381 173.309 -5.15951 85.7452 -31.2379 -2.56661 -2.19332 64.1267 1.12794 22.9159 58.2892 -4.28721 1.44253 0.719064 7.8224 -90.0112 11.2321 1.42594 -0.161425 -0.438056 1.41746 -0.224044 -22.9795 1.40854 0.274687 -2.96685 1.40851 0.274674 116.652 -61.1623 -62.4753 20.4277 -2.73148 -20.2422 0.702965 -28.285 -16.8643 -9.66191 -0.715861 3.58781 -71.9291 -51.7517 105.681 -41.6416 -15.8154 -17.7559 8.83583 68.9694 0.0333714 -7.06559 0.131908 -9.85984 10.3819 -1.71874 -3.4758 -20.0797 -1.67553 5.47827 
